# xmcd
#
# Track frame offsets:
#	150
#	13122
#	25066
#	35670
#	48041
#	59364
#	70618
#	84607
#	97037
#	106818
#	120396
#
# Disc length: 1739 seconds
#
# Revision: 4915240
# Processed by: cddbd v1.5.2PL0 Copyright (c) Steve Scherf et al.
# Submitted via: EZCDAudioConverter 8.3.2.1
#
DISCID=8306c90b
DTITLE=HARLAN HOWARD - DOWN TO EARTH
DYEAR=2017
DGENRE=Traditional Country
TTITLE0=IT'S NOTHIN' TO ME
TTITLE1=I DON'T MIND
TTITLE2=BABY, DON'T BELIEVE HIM
TTITLE3=CALIFORNIA SUNSHINE
TTITLE4=I RUN TO THE DOOR
TTITLE5=I'D RATHER BE A FOOL
TTITLE6=HOME FROM THE FOREST
TTITLE7=OLD PODNER
TTITLE8=IF ONLY YOU'D OF HAPPENED TO ME (A LONG TIME AGO)
TTITLE9=WINE, WOMEN AND SONG
TTITLE10=CALL ME UP (AND I'LL COME CALLING ON YOU)
EXTD=
EXTT0=
EXTT1=
EXTT2=
EXTT3=
EXTT4=
EXTT5=
EXTT6=
EXTT7=
EXTT8=
EXTT9=
EXTT10=
PLAYORDER=
